<svg xmlns="http://www.w3.org/2000/svg" xmlns:xlink="http://www.w3.org/1999/xlink" width="200" zoomAndPan="magnify" viewBox="0 0 150 149.999998" height="200" preserveAspectRatio="xMidYMid meet" version="1.0"><defs><clipPath id="8358fcc27a"><path d="M 26.804688 51.582031 L 32.242188 51.582031 L 32.242188 57.019531 L 26.804688 57.019531 Z M 26.804688 51.582031 " clip-rule="nonzero"/></clipPath><clipPath id="9e7eb50697"><path d="M 29.523438 51.582031 C 28.023438 51.582031 26.804688 52.800781 26.804688 54.300781 C 26.804688 55.800781 28.023438 57.019531 29.523438 57.019531 C 31.023438 57.019531 32.242188 55.800781 32.242188 54.300781 C 32.242188 52.800781 31.023438 51.582031 29.523438 51.582031 Z M 29.523438 51.582031 " clip-rule="nonzero"/></clipPath><clipPath id="a8917abf32"><path d="M 75 0 C 33.578125 0 0 33.578125 0 75 C 0 116.421875 33.578125 150 75 150 C 116.421875 150 150 116.421875 150 75 C 150 33.578125 116.421875 0 75 0 Z M 75 0 " clip-rule="nonzero"/></clipPath><clipPath id="3e25bc1533"><path d="M 13 29.753906 L 137 29.753906 L 137 120 L 13 120 Z M 13 29.753906 " clip-rule="nonzero"/></clipPath></defs><rect x="-15" width="180" fill="#ffffff" y="-15" height="179.999997" fill-opacity="1"/><rect x="-15" width="180" fill="#ffffff" y="-15" height="179.999997" fill-opacity="1"/><g clip-path="url(#8358fcc27a)"><g clip-path="url(#9e7eb50697)"><path fill="#225420" d="M 26.804688 51.582031 L 32.242188 51.582031 L 32.242188 57.019531 L 26.804688 57.019531 Z M 26.804688 51.582031 " fill-opacity="1" fill-rule="nonzero"/></g></g><g clip-path="url(#a8917abf32)"><rect x="-15" width="180" fill="#225420" y="-15" height="179.999997" fill-opacity="1"/></g><g clip-path="url(#3e25bc1533)"><path fill="#ffffff" d="M 59.105469 29.582031 C 59.019531 29.582031 58.9375 29.589844 58.855469 29.59375 C 58.148438 29.648438 41.433594 31.089844 30.71875 39.710938 C 25.125 44.882812 13.9375 75.125 13.9375 101.269531 C 13.9375 101.730469 14.054688 102.175781 14.285156 102.582031 C 22.003906 116.140625 43.066406 119.695312 47.859375 119.851562 L 47.949219 119.851562 C 48.796875 119.851562 49.59375 119.445312 50.09375 118.757812 L 54.953125 112.089844 C 41.855469 108.703125 35.167969 102.953125 34.785156 102.613281 C 33.6875 101.640625 33.574219 99.972656 34.546875 98.875 C 35.070312 98.277344 35.796875 97.972656 36.53125 97.972656 C 37.152344 97.972656 37.78125 98.191406 38.289062 98.632812 C 38.449219 98.777344 50.761719 109.226562 74.988281 109.226562 C 99.253906 109.226562 111.574219 98.730469 111.695312 98.625 C 112.203125 98.183594 112.832031 97.972656 113.453125 97.972656 C 114.1875 97.972656 114.910156 98.273438 115.4375 98.875 C 116.402344 99.972656 116.304688 101.648438 115.210938 102.613281 C 114.820312 102.957031 108.128906 108.691406 95.03125 112.078125 L 99.890625 118.757812 C 100.390625 119.445312 101.1875 119.851562 102.035156 119.851562 L 102.125 119.851562 C 106.925781 119.703125 127.988281 116.148438 135.710938 102.582031 C 135.9375 102.179688 136.058594 101.730469 136.058594 101.269531 C 136.058594 75.125 124.867188 44.878906 119.132812 39.589844 C 108.566406 31.09375 91.851562 29.65625 91.140625 29.59375 C 91.070312 29.589844 90.984375 29.582031 90.914062 29.582031 C 89.878906 29.582031 88.933594 30.195312 88.507812 31.144531 C 88.472656 31.210938 88.109375 32.050781 87.703125 33.355469 C 94.691406 34.535156 103.273438 36.914062 111.046875 41.738281 C 112.289062 42.507812 112.675781 44.140625 111.902344 45.390625 C 111.402344 46.203125 110.535156 46.648438 109.648438 46.648438 C 109.171875 46.648438 108.6875 46.519531 108.25 46.246094 C 94.894531 37.972656 78.207031 37.550781 74.996094 37.550781 C 71.789062 37.550781 55.101562 37.976562 41.757812 46.257812 C 41.320312 46.523438 40.835938 46.648438 40.359375 46.648438 C 39.46875 46.648438 38.597656 46.210938 38.09375 45.402344 C 37.316406 44.152344 37.707031 42.515625 38.949219 41.738281 C 46.71875 36.917969 55.308594 34.542969 62.300781 33.367188 C 61.890625 32.058594 61.515625 31.222656 61.488281 31.15625 C 61.0625 30.207031 60.128906 29.582031 59.105469 29.582031 Z M 74.996094 48.65625 C 76.640625 48.65625 91.375 48.851562 102.382812 55.679688 C 104.566406 57.035156 107.066406 57.761719 109.636719 57.761719 C 111.820312 57.761719 113.914062 57.261719 115.785156 56.332031 C 119.210938 64.949219 123.238281 78.527344 124.535156 92.476562 C 124.3125 92.164062 124.074219 91.867188 123.816406 91.578125 C 121.207031 88.585938 117.433594 86.882812 113.464844 86.882812 C 110.148438 86.882812 106.9375 88.070312 104.585938 90.113281 C 104.179688 90.441406 94.453125 98.136719 74.996094 98.136719 C 55.546875 98.136719 45.828125 90.453125 45.617188 90.285156 C 43.101562 88.082031 39.882812 86.871094 36.542969 86.871094 C 32.59375 86.871094 28.835938 88.5625 26.230469 91.511719 C 25.960938 91.816406 25.707031 92.136719 25.460938 92.464844 C 26.753906 78.527344 30.78125 64.921875 34.191406 56.308594 C 36.066406 57.246094 38.171875 57.75 40.359375 57.75 C 42.921875 57.75 45.425781 57.035156 47.601562 55.679688 C 58.621094 48.847656 73.355469 48.65625 74.996094 48.65625 Z M 57.738281 63.867188 C 52.609375 63.867188 48.445312 68.617188 48.445312 74.480469 C 48.445312 80.339844 52.601562 85.09375 57.738281 85.09375 C 62.871094 85.09375 67.027344 80.339844 67.027344 74.480469 C 67.027344 68.613281 62.871094 63.867188 57.738281 63.867188 Z M 92.257812 63.867188 C 87.128906 63.867188 82.964844 68.617188 82.964844 74.480469 C 82.964844 80.339844 87.121094 85.09375 92.257812 85.09375 C 97.390625 85.09375 101.550781 80.339844 101.550781 74.480469 C 101.550781 68.613281 97.386719 63.867188 92.257812 63.867188 Z M 92.257812 63.867188 " fill-opacity="1" fill-rule="nonzero"/></g></svg>