<svg xmlns="http://www.w3.org/2000/svg" xmlns:xlink="http://www.w3.org/1999/xlink" width="200" zoomAndPan="magnify" viewBox="0 0 150 149.999998" height="200" preserveAspectRatio="xMidYMid meet" version="1.0"><defs><clipPath id="ae513ef4c5"><path d="M 26.804688 51.582031 L 32.242188 51.582031 L 32.242188 57.019531 L 26.804688 57.019531 Z M 26.804688 51.582031 " clip-rule="nonzero"/></clipPath><clipPath id="bd96350e1c"><path d="M 29.523438 51.582031 C 28.023438 51.582031 26.804688 52.800781 26.804688 54.300781 C 26.804688 55.800781 28.023438 57.019531 29.523438 57.019531 C 31.023438 57.019531 32.242188 55.800781 32.242188 54.300781 C 32.242188 52.800781 31.023438 51.582031 29.523438 51.582031 Z M 29.523438 51.582031 " clip-rule="nonzero"/></clipPath><clipPath id="379058c779"><path d="M 75 0 C 33.578125 0 0 33.578125 0 75 C 0 116.421875 33.578125 150 75 150 C 116.421875 150 150 116.421875 150 75 C 150 33.578125 116.421875 0 75 0 Z M 75 0 " clip-rule="nonzero"/></clipPath><clipPath id="59f00d7d0f"><path d="M 15 30.652344 L 136.5 30.652344 L 136.5 119.152344 L 15 119.152344 Z M 15 30.652344 " clip-rule="nonzero"/></clipPath></defs><rect x="-15" width="180" fill="#ffffff" y="-15" height="179.999997" fill-opacity="1"/><rect x="-15" width="180" fill="#ffffff" y="-15" height="179.999997" fill-opacity="1"/><g clip-path="url(#ae513ef4c5)"><g clip-path="url(#bd96350e1c)"><path fill="#225420" d="M 26.804688 51.582031 L 32.242188 51.582031 L 32.242188 57.019531 L 26.804688 57.019531 Z M 26.804688 51.582031 " fill-opacity="1" fill-rule="nonzero"/></g></g><g clip-path="url(#379058c779)"><rect x="-15" width="180" fill="#225420" y="-15" height="179.999997" fill-opacity="1"/></g><g clip-path="url(#59f00d7d0f)"><path fill="#ffffff" d="M 136.230469 50.734375 C 136.230469 39.660156 127.253906 30.683594 116.179688 30.683594 C 94.6875 30.683594 56.746094 30.683594 35.257812 30.683594 C 24.183594 30.683594 15.203125 39.660156 15.203125 50.734375 C 15.203125 64.84375 15.203125 85.277344 15.203125 99.382812 C 15.203125 110.457031 24.183594 119.4375 35.257812 119.4375 C 56.746094 119.4375 94.6875 119.4375 116.179688 119.4375 C 127.253906 119.4375 136.230469 110.457031 136.230469 99.382812 Z M 92.097656 77.40625 L 78.46875 90.113281 C 76.917969 91.558594 74.515625 91.558594 72.96875 90.113281 L 60.277344 78.28125 L 30.441406 110.359375 C 31.914062 111.007812 33.542969 111.367188 35.257812 111.367188 C 35.257812 111.367188 116.179688 111.367188 116.179688 111.367188 C 117.925781 111.367188 119.582031 110.992188 121.078125 110.324219 Z M 24.679688 45.09375 L 54.375 72.78125 L 24.574219 104.816406 C 23.742188 103.1875 23.273438 101.339844 23.273438 99.382812 C 23.273438 99.382812 23.273438 50.734375 23.273438 50.734375 C 23.273438 48.695312 23.78125 46.777344 24.679688 45.09375 Z M 126.753906 45.09375 C 127.652344 46.777344 128.164062 48.695312 128.164062 50.734375 L 128.164062 99.382812 C 128.164062 101.304688 127.710938 103.121094 126.90625 104.730469 L 98 71.902344 Z M 120.757812 39.65625 L 75.71875 81.648438 L 30.679688 39.65625 C 32.089844 39.074219 33.636719 38.75 35.257812 38.75 C 35.257812 38.75 116.179688 38.75 116.179688 38.75 C 117.800781 38.75 119.347656 39.074219 120.757812 39.65625 Z M 120.757812 39.65625 " fill-opacity="1" fill-rule="evenodd"/></g></svg>