<svg xmlns="http://www.w3.org/2000/svg" xmlns:xlink="http://www.w3.org/1999/xlink" width="200" zoomAndPan="magnify" viewBox="0 0 150 149.999998" height="200" preserveAspectRatio="xMidYMid meet" version="1.0"><defs><clipPath id="5ba6be5314"><path d="M 26.804688 51.582031 L 32.242188 51.582031 L 32.242188 57.019531 L 26.804688 57.019531 Z M 26.804688 51.582031 " clip-rule="nonzero"/></clipPath><clipPath id="7d1ce66f36"><path d="M 29.523438 51.582031 C 28.023438 51.582031 26.804688 52.800781 26.804688 54.300781 C 26.804688 55.800781 28.023438 57.019531 29.523438 57.019531 C 31.023438 57.019531 32.242188 55.800781 32.242188 54.300781 C 32.242188 52.800781 31.023438 51.582031 29.523438 51.582031 Z M 29.523438 51.582031 " clip-rule="nonzero"/></clipPath><clipPath id="f0f09a2911"><path d="M 75 0 C 33.578125 0 0 33.578125 0 75 C 0 116.421875 33.578125 150 75 150 C 116.421875 150 150 116.421875 150 75 C 150 33.578125 116.421875 0 75 0 Z M 75 0 " clip-rule="nonzero"/></clipPath><clipPath id="8415c35c8e"><path d="M 38.804688 15 L 111.554688 15 L 111.554688 150 L 38.804688 150 Z M 38.804688 15 " clip-rule="nonzero"/></clipPath></defs><rect x="-15" width="180" fill="#ffffff" y="-15" height="179.999997" fill-opacity="1"/><rect x="-15" width="180" fill="#ffffff" y="-15" height="179.999997" fill-opacity="1"/><g clip-path="url(#5ba6be5314)"><g clip-path="url(#7d1ce66f36)"><path fill="#225420" d="M 26.804688 51.582031 L 32.242188 51.582031 L 32.242188 57.019531 L 26.804688 57.019531 Z M 26.804688 51.582031 " fill-opacity="1" fill-rule="nonzero"/></g></g><g clip-path="url(#f0f09a2911)"><rect x="-15" width="180" fill="#225420" y="-15" height="179.999997" fill-opacity="1"/></g><g clip-path="url(#8415c35c8e)"><path fill="#ffffff" d="M 93.09375 15 C 74.089844 15 62.941406 25.039062 62.941406 47.910156 L 62.941406 68.035156 L 38.835938 68.035156 L 38.835938 92.144531 L 62.941406 92.144531 L 62.941406 150 L 87.050781 150 L 87.050781 92.144531 L 106.335938 92.144531 L 111.15625 68.035156 L 87.050781 68.035156 L 87.050781 51.988281 C 87.050781 43.375 89.859375 39.105469 97.945312 39.105469 L 111.15625 39.105469 L 111.15625 15.988281 C 108.871094 15.679688 102.214844 15 93.09375 15 Z M 93.09375 15 " fill-opacity="1" fill-rule="nonzero"/></g></svg>